<svg xmlns="http://www.w3.org/2000/svg" viewBox="0 0 120 120" role="img" aria-labelledby="title"><title id="title">IASA community leaf logo</title><defs><linearGradient id="g" x1="0" y1="0" x2="1" y2="1"><stop stop-color="#dfeee7"/><stop offset="1" stop-color="#f2c879"/></linearGradient></defs><circle cx="60" cy="60" r="56" fill="url(#g)"/><circle cx="60" cy="60" r="45" fill="#fffdf7"/><path d="M62 21c20 14 31 29 31 45 0 18-14 31-33 31S27 84 27 66c0-16 11-31 35-45z" fill="#2e705e"/><path d="M60 40c12 10 18 18 18 27 0 10-7 17-18 17s-18-7-18-17c0-9 6-17 18-27z" fill="#fbf8f1"/><path d="M37 74c11-5 23-15 37-32" fill="none" stroke="#f2c879" stroke-width="5" stroke-linecap="round"/></svg>
